<?xml version="1.0" encoding="UTF-8"?>
<svg width="20px" height="20px" viewBox="0 0 20 20" version="1.1" xmlns="http://www.w3.org/2000/svg" xmlns:xlink="http://www.w3.org/1999/xlink">
    <!-- Generator: Sketch 39.1 (31720) - http://www.bohemiancoding.com/sketch -->
    <title>Shape</title>
    <desc>Created with Sketch.</desc>
    <defs></defs>
    <g id="Flow" stroke="none" stroke-width="1" fill="none" fill-rule="evenodd" fill-opacity="0.5">
        <g id="Flow-Cast" transform="translate(-966.000000, -308.000000)" fill="#FFFFFF">
            <g id="App" transform="translate(420.000000, 260.000000)">
                <path d="M564.749961,59.8746191 L563.152099,60.1408816 C563.004594,60.6327797 562.811775,61.0996765 562.57208,61.5431348 L563.513047,62.8610091 C564.0015,63.349157 564.0015,64.1410691 563.513047,64.629217 L562.629582,65.5130084 C562.141129,66.0011563 561.349542,66.0011563 560.861402,65.5130084 L559.543548,64.5717143 C559.099784,64.8111005 558.633207,65.0042346 558.141629,65.152054 L557.875059,66.7499414 C557.875059,67.4399737 557.315354,68 556.62502,68 L555.37498,68 C554.684334,68 554.124941,67.4399737 554.124941,66.7499414 L553.858371,65.152054 C553.366793,65.0042346 552.900216,64.8111005 552.456452,64.5717143 L551.138598,65.5130084 C550.650145,66.0011563 549.858558,66.0011563 549.37073,65.5130084 L548.48664,64.629217 C547.9985,64.1410691 547.9985,63.349157 548.48664,62.8610091 L549.428232,61.5431348 C549.188225,61.0996765 548.995094,60.6327797 548.847901,60.1408816 L547.250039,59.8746191 C546.559705,59.8746191 546,59.3149054 546,58.6239355 L546,57.375127 C546,56.6844696 546.559705,56.1244433 547.250039,56.1244433 L548.848214,55.8578683 C548.995406,55.3659703 549.188537,54.8996984 549.428232,54.4559276 L548.48664,53.1380533 C547.9985,52.6499055 547.9985,51.8586184 548.48664,51.370158 L549.37073,50.4863665 C549.858871,49.9985312 550.650458,49.9985312 551.138598,50.4863665 L552.456452,51.4279732 C552.900216,51.1882745 553.366793,50.9951404 553.858371,50.8476335 L554.124941,49.2500586 C554.124941,48.5597137 554.684334,48 555.37498,48 L556.62502,48 C557.315354,48 557.875059,48.5597137 557.875059,49.2500586 L558.141629,50.8476335 C558.633207,50.9951404 559.099784,51.1882745 559.543548,51.4279732 L560.861402,50.4863665 C561.349855,49.9985312 562.141442,49.9985312 562.629582,50.4863665 L563.513047,51.370158 C564.0015,51.8586184 564.0015,52.6499055 563.513047,53.1380533 L562.571768,54.4559276 C562.812088,54.8996984 563.004906,55.3662828 563.152099,55.8578683 L564.749961,56.1244433 C565.440295,56.1244433 566,56.6844696 566,57.375127 L566,58.6239355 C566,59.3149054 565.440295,59.8746191 564.749961,59.8746191 L564.749961,59.8746191 Z M555.999687,61.1243652 C554.274009,61.1243652 552.87459,59.7246121 552.87459,57.9992187 C552.87459,56.2732003 554.274009,54.8737597 555.999687,54.8737597 C557.725366,54.8737597 559.124785,56.2735128 559.124785,57.9992187 C559.124785,59.7249246 557.725366,61.1243652 555.999687,61.1243652 L555.999687,61.1243652 Z" id="Shape"></path>
            </g>
        </g>
    </g>
</svg>