<?xml version="1.0" encoding="UTF-8"?>
<svg width="20px" height="20px" viewBox="0 0 20 20" version="1.1" xmlns="http://www.w3.org/2000/svg" xmlns:xlink="http://www.w3.org/1999/xlink">
    <!-- Generator: Sketch 39.1 (31720) - http://www.bohemiancoding.com/sketch -->
    <title>Shape</title>
    <desc>Created with Sketch.</desc>
    <defs></defs>
    <g id="Flow" stroke="none" stroke-width="1" fill="none" fill-rule="evenodd">
        <g id="Flow-Cast" transform="translate(-449.000000, -308.000000)" fill="#FFFFFF">
            <g id="App" transform="translate(420.000000, 260.000000)">
                <path d="M39,65.4994922 C38.6175,65.4994922 38.2415625,65.4763683 37.870625,65.44012 L32.75,68 L32.75,63.5739575 C30.465625,61.9709076 29,59.5116479 29,56.7502148 C29,51.9173164 33.4771875,48 39,48 C44.5228125,48 49,51.9176289 49,56.7502148 C49,61.5821758 44.5228125,65.4994922 39,65.4994922 L39,65.4994922 Z M39,49.2499414 C34.1675,49.2499414 30.25,52.607909 30.25,56.7499023 C30.25,59.2900958 31.7425,61.5103042 34.0003125,62.8636783 L34,66.1241504 L37.7503125,64.2501758 C37.7503125,64.2501758 37.5659375,64.2495508 39,64.2495508 C43.8325,64.2495508 47.75,60.8918957 47.75,56.7502148 C47.75,52.607909 43.8325,49.2499414 39,49.2499414 L39,49.2499414 Z M43.375,55.4999609 L34.625,55.4999609 C34.28,55.4999609 34,55.2202865 34,54.8749902 C34,54.5300064 34.28,54.250332 34.625,54.250332 L43.375,54.250332 C43.72,54.250332 44,54.5300064 44,54.8749902 C44,55.2202865 43.7203125,55.4999609 43.375,55.4999609 L43.375,55.4999609 Z M35.875,58.0001562 L42.125,58.0001562 C42.4703125,58.0001562 42.75,58.2798306 42.75,58.6251269 C42.75,58.9701108 42.4703125,59.2504101 42.125,59.2504101 L35.875,59.2504101 C35.53,59.2504101 35.25,58.9704233 35.25,58.6251269 C35.25,58.2795181 35.53,58.0001562 35.875,58.0001562 L35.875,58.0001562 Z" id="Shape"></path>
            </g>
        </g>
    </g>
</svg>